<svg width="100" height="28" viewBox="0 0 100 28" fill="none" xmlns="http://www.w3.org/2000/svg">
<path d="M56.4682 26.6938C56.4682 26.4672 56.4695 26.2944 56.472 26.1757C56.4745 26.057 56.4757 25.9528 56.4757 25.8631C56.3737 25.9262 56.2659 25.9776 56.1518 26.0173C56.0381 26.057 55.9336 26.107 55.8391 26.1677C55.7446 26.2285 55.6671 26.3116 55.6064 26.4168C55.546 26.5224 55.5156 26.6756 55.5156 26.876C55.5156 27.0713 55.5531 27.2199 55.628 27.3232C55.7034 27.426 55.8041 27.4774 55.9299 27.4774C56.0902 27.4774 56.2197 27.4115 56.3192 27.2797C56.4187 27.148 56.4682 26.9527 56.4682 26.6938ZM54.7445 24.5413C54.9481 24.3619 55.1675 24.2246 55.4027 24.1297C55.638 24.0349 55.872 23.9872 56.1047 23.9872C56.2984 23.9872 56.4766 24.011 56.6394 24.0587C56.8017 24.1059 56.9421 24.1811 57.0611 24.2839C57.1798 24.3872 57.2722 24.5203 57.3376 24.6838C57.403 24.8474 57.4359 25.045 57.4359 25.2772C57.4359 25.615 57.4321 25.9276 57.425 26.2154C57.4176 26.5027 57.4138 26.7891 57.4138 27.0737C57.4138 27.2003 57.4221 27.2994 57.4392 27.3704C57.4563 27.4419 57.4817 27.4961 57.5158 27.533C57.5495 27.5699 57.5945 27.5937 57.6503 27.604C57.7061 27.6147 57.7702 27.6199 57.8431 27.6199V27.81C57.7024 27.8731 57.5837 27.9208 57.4867 27.9525C57.3897 27.9838 57.2856 27.9997 57.174 27.9997C56.9945 27.9997 56.8488 27.9525 56.7376 27.8572C56.626 27.7624 56.5411 27.6255 56.4828 27.4456C56.3712 27.6147 56.2417 27.7493 56.0935 27.8493C55.9457 27.9497 55.7604 27.9997 55.5372 27.9997C55.3528 27.9997 55.1954 27.9731 55.0647 27.9208C54.9335 27.868 54.8257 27.7927 54.7407 27.6951C54.6558 27.5974 54.5942 27.4867 54.5554 27.3629C54.5163 27.2386 54.4971 27.1134 54.4971 26.9868C54.4971 26.8125 54.5225 26.6621 54.5738 26.5359C54.6246 26.4093 54.6974 26.3009 54.7919 26.2112C54.8865 26.1215 54.9993 26.0463 55.13 25.9855C55.2608 25.9248 55.409 25.8734 55.5735 25.8313C55.7775 25.7785 55.9386 25.7323 56.0573 25.693C56.1764 25.6533 56.2646 25.6136 56.3229 25.5739C56.3812 25.5347 56.4187 25.4907 56.4358 25.4435C56.4524 25.3959 56.4612 25.338 56.4612 25.2693C56.4612 25.0796 56.3991 24.9175 56.2755 24.7829C56.1518 24.6483 55.9811 24.5811 55.7629 24.5811C55.68 24.5811 55.5955 24.5927 55.5081 24.6166C55.4211 24.6404 55.3374 24.6731 55.2574 24.7156C55.1775 24.7577 55.1046 24.8039 55.0393 24.8539C54.9735 24.9039 54.9239 24.9581 54.8898 25.016H54.839" fill="#BF1313"/>
<path d="M58.5709 27.1648C58.6171 27.2414 58.6737 27.3101 58.742 27.3708C58.8094 27.4316 58.8911 27.4802 58.9856 27.5171C59.0801 27.554 59.1904 27.5722 59.3166 27.5722C59.486 27.5722 59.6168 27.525 59.7092 27.4302C59.8012 27.3349 59.8474 27.2321 59.8474 27.1213C59.8474 26.9999 59.8062 26.9027 59.7238 26.8284C59.6413 26.7546 59.5385 26.6873 59.4148 26.6266C59.2912 26.5663 59.1563 26.5041 59.011 26.4406C58.8657 26.3775 58.7308 26.2972 58.6071 26.1995C58.4834 26.1019 58.3806 25.979 58.2981 25.8313C58.2157 25.6837 58.1745 25.4935 58.1745 25.2613C58.1745 25.0399 58.212 24.8488 58.2873 24.6876C58.3623 24.5269 58.4605 24.3951 58.5817 24.2918C58.7029 24.1891 58.8398 24.1124 58.9926 24.0624C59.1455 24.0124 59.297 23.9872 59.4473 23.9872C59.6509 23.9872 59.8316 24.019 59.9894 24.0825C60.1468 24.1456 60.3079 24.2376 60.4728 24.3591C60.4295 24.4647 60.3929 24.5782 60.3637 24.6997C60.3346 24.8207 60.3129 24.9394 60.2984 25.0557H60.0948C60.0802 24.9922 60.056 24.9226 60.0219 24.846C59.9882 24.7698 59.942 24.6969 59.8837 24.6282C59.8254 24.56 59.755 24.503 59.673 24.4582C59.5901 24.4133 59.491 24.3909 59.3745 24.3909C59.2291 24.3909 59.1067 24.4334 59.0072 24.5175C58.9077 24.6021 58.8582 24.7128 58.8582 24.8497C58.8582 24.9768 58.9006 25.0782 58.9856 25.1543C59.0701 25.2314 59.1758 25.2982 59.302 25.3566C59.4277 25.4146 59.566 25.4725 59.7167 25.5304C59.8666 25.5884 60.0048 25.6636 60.131 25.7561C60.2571 25.8486 60.3625 25.9687 60.4474 26.1163C60.5324 26.264 60.5748 26.4541 60.5748 26.6859C60.5748 26.9181 60.5361 27.1176 60.4583 27.2835C60.3808 27.4498 60.2767 27.5867 60.1456 27.6951C60.0148 27.8035 59.8653 27.881 59.6984 27.9287C59.531 27.9759 59.3553 27.9997 59.1709 27.9997C58.9527 27.9997 58.7561 27.9651 58.5817 27.8969C58.4072 27.8282 58.269 27.7572 58.167 27.6834C58.2253 27.4302 58.2619 27.1769 58.2761 26.9232H58.458C58.4872 27.0078 58.5247 27.0882 58.5709 27.1648Z" fill="#BF1313"/>
<path d="M82.0715 26.6938C82.0715 26.4672 82.0727 26.2944 82.0752 26.1757C82.0777 26.057 82.079 25.9528 82.079 25.8631C81.977 25.9262 81.8691 25.9776 81.7551 26.0173C81.6414 26.057 81.5369 26.107 81.4424 26.1677C81.3478 26.2285 81.2704 26.3116 81.2096 26.4168C81.1492 26.5224 81.1188 26.6756 81.1188 26.876C81.1188 27.0713 81.1563 27.2199 81.2313 27.3232C81.3066 27.426 81.4074 27.4774 81.5331 27.4774C81.6934 27.4774 81.8229 27.4115 81.9224 27.2797C82.0219 27.148 82.0715 26.9527 82.0715 26.6938ZM80.3477 24.5413C80.5513 24.3619 80.7708 24.2246 81.006 24.1297C81.2412 24.0349 81.4753 23.9872 81.708 23.9872C81.9016 23.9872 82.0798 24.011 82.2426 24.0587C82.405 24.1059 82.5453 24.1811 82.6644 24.2839C82.7831 24.3872 82.8755 24.5203 82.9409 24.6838C83.0062 24.8474 83.0391 25.045 83.0391 25.2772C83.0391 25.615 83.0354 25.9276 83.0283 26.2154C83.0208 26.5027 83.0171 26.7891 83.0171 27.0737C83.0171 27.2003 83.0254 27.2994 83.0424 27.3704C83.0595 27.4419 83.0849 27.4961 83.1191 27.533C83.1528 27.5699 83.1978 27.5937 83.2536 27.604C83.3093 27.6147 83.3735 27.6199 83.4463 27.6199V27.81C83.3056 27.8731 83.1869 27.9208 83.0899 27.9525C82.9929 27.9838 82.8888 27.9997 82.7772 27.9997C82.5978 27.9997 82.452 27.9525 82.3409 27.8572C82.2293 27.7624 82.1443 27.6255 82.0861 27.4456C81.9745 27.6147 81.845 27.7493 81.6968 27.8493C81.549 27.9497 81.3637 27.9997 81.1405 27.9997C80.956 27.9997 80.7987 27.9731 80.6679 27.9208C80.5368 27.868 80.4289 27.7927 80.344 27.6951C80.259 27.5974 80.1974 27.4867 80.1587 27.3629C80.1196 27.2386 80.1004 27.1134 80.1004 26.9868C80.1004 26.8125 80.1258 26.6621 80.177 26.5359C80.2278 26.4093 80.3007 26.3009 80.3952 26.2112C80.4897 26.1215 80.6025 26.0463 80.7333 25.9855C80.864 25.9248 81.0123 25.8734 81.1767 25.8313C81.3807 25.7785 81.5419 25.7323 81.6605 25.693C81.7796 25.6533 81.8679 25.6136 81.9262 25.5739C81.9845 25.5347 82.0219 25.4907 82.039 25.4435C82.0557 25.3959 82.0644 25.338 82.0644 25.2693C82.0644 25.0796 82.0024 24.9175 81.8787 24.7829C81.7551 24.6483 81.5843 24.5811 81.3662 24.5811C81.2833 24.5811 81.1988 24.5927 81.1114 24.6166C81.0243 24.6404 80.9406 24.6731 80.8607 24.7156C80.7807 24.7577 80.7079 24.8039 80.6425 24.8539C80.5767 24.9039 80.5272 24.9581 80.493 25.016H80.4422" fill="#BF1313"/>
<path d="M11.7723 25.4753C11.9151 25.016 12.0571 24.5544 12.1978 24.0899C12.2511 24.1007 12.3019 24.11 12.3502 24.1175C12.3989 24.1259 12.4472 24.1297 12.4959 24.1297C12.5442 24.1297 12.593 24.1259 12.6413 24.1175C12.69 24.11 12.7433 24.1007 12.8016 24.0899C12.7237 24.296 12.6292 24.5347 12.5176 24.8062C12.406 25.0781 12.2886 25.3762 12.1649 25.7005C12.0413 26.0252 11.9151 26.3733 11.7869 26.7452C11.6582 27.1171 11.5383 27.5011 11.4267 27.8969C11.3588 27.8861 11.2931 27.881 11.2302 27.881H10.8375C10.7743 27.881 10.7089 27.8861 10.641 27.8969C10.544 27.596 10.4362 27.2638 10.3175 26.8993C10.1984 26.5354 10.081 26.1784 9.96442 25.8271C9.84826 25.4767 9.73917 25.1482 9.63716 24.8422C9.53556 24.5361 9.45062 24.2852 9.38276 24.0899C9.48435 24.1007 9.58261 24.11 9.67755 24.1175C9.77164 24.1259 9.86533 24.1297 9.95735 24.1297C10.0494 24.1297 10.1401 24.1259 10.2301 24.1175C10.32 24.11 10.4108 24.1007 10.5028 24.0899C10.6339 24.5544 10.7659 25.016 10.8992 25.4753C11.0328 25.9341 11.1698 26.3957 11.3101 26.8601H11.3247C11.48 26.3957 11.6291 25.9341 11.7723 25.4753Z" fill="#BF1313"/>
<path d="M17.8939 25.0717C18.0201 24.7078 18.1729 24.44 18.3524 24.2681C18.5318 24.0971 18.745 24.0111 18.9927 24.0111C19.0169 24.0111 19.0373 24.0125 19.0544 24.0153C19.071 24.0177 19.0893 24.0191 19.1089 24.0191C19.0943 24.098 19.0835 24.1826 19.076 24.2723C19.0689 24.362 19.0652 24.4676 19.0652 24.5891V24.9769C19.0652 25.0241 19.0677 25.0689 19.0727 25.1114L19.0069 25.1745C18.9586 25.1427 18.9041 25.1166 18.8433 25.0951C18.7829 25.0741 18.7138 25.0638 18.6359 25.0638C18.4177 25.0638 18.2458 25.1418 18.1196 25.2974C17.9935 25.453 17.9306 25.6361 17.9306 25.8473V26.1636C17.9306 26.4855 17.9339 26.7888 17.9414 27.0738C17.9489 27.3588 17.9643 27.633 17.9889 27.897C17.9256 27.8863 17.8469 27.8811 17.7524 27.8811H17.1378C17.0454 27.8811 16.9655 27.8863 16.8976 27.897C16.9217 27.633 16.9376 27.3588 16.945 27.0738C16.9521 26.7888 16.9559 26.4855 16.9559 26.1636V25.8473C16.9559 25.5254 16.9521 25.2236 16.945 24.9409C16.9376 24.6587 16.9217 24.3751 16.8976 24.0901C16.98 24.1008 17.0637 24.1102 17.1487 24.1177C17.2336 24.1261 17.3169 24.1298 17.3997 24.1298C17.4822 24.1298 17.5654 24.1261 17.6504 24.1177C17.7353 24.1102 17.819 24.1008 17.9014 24.0901L17.8798 25.0558" fill="#BF1313"/>
<path d="M20.707 24.6838C20.8428 24.4619 21.0018 24.2909 21.1838 24.1694C21.3653 24.048 21.5726 23.9872 21.8054 23.9872C22.1689 23.9872 22.4491 24.1021 22.6456 24.3316C22.8417 24.561 22.94 24.9319 22.94 25.4435C22.94 25.7127 22.9354 25.95 22.9254 26.1556C22.9159 26.3616 22.9113 26.5672 22.9113 26.7733C22.9113 26.9419 22.9146 27.1251 22.9221 27.3232C22.9292 27.5208 22.9375 27.7124 22.9475 27.8969C22.8842 27.8862 22.8043 27.881 22.7073 27.881H22.0964C21.9994 27.881 21.9195 27.8862 21.8562 27.8969C21.8903 27.6227 21.912 27.2993 21.922 26.9274C21.9316 26.5555 21.9366 26.1294 21.9366 25.6491C21.9366 25.3169 21.8841 25.073 21.78 24.917C21.6755 24.7614 21.5289 24.6838 21.3399 24.6838C21.1217 24.6838 20.9618 24.7866 20.8598 24.9922C20.7582 25.1983 20.707 25.4833 20.707 25.8472V26.1635C20.707 26.4854 20.7108 26.7891 20.7178 27.0737C20.7253 27.3587 20.7407 27.6329 20.7653 27.8969C20.702 27.8862 20.6233 27.881 20.5288 27.881H19.9143C19.8222 27.881 19.7419 27.8862 19.6744 27.8969C19.6986 27.6329 19.7144 27.3587 19.7215 27.0737C19.7286 26.7891 19.7323 26.4854 19.7323 26.1635V25.8472C19.7323 25.5253 19.7286 25.2235 19.7215 24.9408C19.7144 24.6586 19.6986 24.375 19.6744 24.09C19.7614 24.1007 19.8476 24.1101 19.9326 24.118C20.0171 24.126 20.1033 24.1297 20.1907 24.1297C20.2782 24.1297 20.3639 24.126 20.4489 24.118C20.5338 24.1101 20.6246 24.1007 20.7216 24.09L20.6924 24.6838" fill="#BF1313"/>
<path d="M24.732 24.6838C24.8678 24.4619 25.0264 24.2909 25.2084 24.1694C25.3903 24.048 25.5977 23.9872 25.8304 23.9872C26.0486 23.9872 26.2364 24.0522 26.3942 24.1811C26.5516 24.3105 26.674 24.4965 26.7614 24.739C26.9067 24.4965 27.0766 24.3105 27.2706 24.1811C27.4642 24.0522 27.6708 23.9872 27.8889 23.9872C28.2524 23.9872 28.5326 24.1021 28.7292 24.3316C28.9253 24.561 29.0235 24.9319 29.0235 25.4435C29.0235 25.7127 29.0185 25.95 29.009 26.1556C28.9994 26.3616 28.9944 26.5672 28.9944 26.7733C28.9944 26.9419 28.9981 27.1251 29.0052 27.3232C29.0127 27.5208 29.021 27.7124 29.031 27.8969C28.9677 27.8862 28.8878 27.881 28.7908 27.881H28.1796C28.0825 27.881 28.0026 27.8862 27.9397 27.8969C27.9735 27.6227 27.9955 27.2993 28.0051 26.9274C28.0147 26.5555 28.0197 26.1294 28.0197 25.6491C28.0197 25.3169 27.9689 25.073 27.8669 24.917C27.7653 24.7614 27.622 24.6838 27.438 24.6838C27.3214 24.6838 27.2257 24.7128 27.1507 24.7707C27.0753 24.8291 27.0158 24.9039 26.9725 24.9964C26.9288 25.0889 26.8996 25.1875 26.8851 25.2931C26.8705 25.3987 26.8634 25.4987 26.8634 25.594V26.1635C26.8634 26.4854 26.8667 26.7891 26.8742 27.0737C26.8813 27.3587 26.8971 27.6329 26.9213 27.8969C26.8584 27.8862 26.7797 27.881 26.6852 27.881H26.0702C25.9782 27.881 25.8983 27.8862 25.8304 27.8969C25.8546 27.6329 25.8704 27.3587 25.8775 27.0737C25.885 26.7891 25.8887 26.4854 25.8887 26.1635V25.6809C25.8887 25.3641 25.8521 25.1188 25.7796 24.945C25.7067 24.7707 25.5685 24.6838 25.3649 24.6838C25.1467 24.6838 24.9864 24.7866 24.8848 24.9922C24.7828 25.1983 24.732 25.4833 24.732 25.8472V26.1635C24.732 26.4854 24.7358 26.7891 24.7429 27.0737C24.7503 27.3587 24.7658 27.6329 24.7903 27.8969C24.727 27.8862 24.6483 27.881 24.5538 27.881H23.9393C23.8468 27.881 23.7669 27.8862 23.699 27.8969C23.7232 27.6329 23.739 27.3587 23.7465 27.0737C23.7536 26.7891 23.7573 26.4854 23.7573 26.1635V25.8472C23.7573 25.5253 23.7536 25.2235 23.7465 24.9408C23.739 24.6586 23.7232 24.375 23.699 24.09C23.7865 24.1007 23.8722 24.1101 23.9572 24.118C24.0421 24.126 24.1283 24.1297 24.2157 24.1297C24.3028 24.1297 24.3889 24.126 24.4739 24.118C24.5584 24.1101 24.6496 24.1007 24.7466 24.09L24.7175 24.6838" fill="#BF1313"/>
<path d="M34.4491 24.6837C34.5848 24.4618 34.7439 24.2908 34.9258 24.1693C35.1074 24.0478 35.3147 23.9871 35.5475 23.9871C35.9114 23.9871 36.1912 24.102 36.3877 24.3314C36.5838 24.5608 36.6825 24.9318 36.6825 25.4434C36.6825 25.7125 36.6775 25.9499 36.6679 26.1555C36.6579 26.3615 36.6533 26.5671 36.6533 26.7731C36.6533 26.9418 36.6567 27.1249 36.6642 27.323C36.6712 27.5207 36.6796 27.7122 36.6896 27.8968C36.6263 27.886 36.5463 27.8809 36.4493 27.8809H35.8385C35.7415 27.8809 35.6615 27.886 35.5983 27.8968C35.6324 27.6225 35.654 27.2992 35.664 26.9273C35.6736 26.5554 35.6786 26.1293 35.6786 25.649C35.6786 25.3168 35.6262 25.0729 35.5221 24.9169C35.4175 24.7613 35.271 24.6837 35.082 24.6837C34.8638 24.6837 34.7039 24.7865 34.6019 24.9921C34.4999 25.1981 34.4491 25.4831 34.4491 25.8471V26.1634C34.4491 26.4853 34.4528 26.789 34.4599 27.0735C34.4674 27.3586 34.4828 27.6328 34.5074 27.8968C34.4445 27.886 34.3654 27.8809 34.2709 27.8809H33.6563C33.5643 27.8809 33.4839 27.886 33.4161 27.8968C33.4406 27.6328 33.456 27.3586 33.4635 27.0735C33.4706 26.789 33.4744 26.4853 33.4744 26.1634V25.8471C33.4744 25.5252 33.4706 25.2233 33.4635 24.9407C33.456 24.6585 33.4406 24.3749 33.4161 24.0899C33.5035 24.1006 33.5897 24.11 33.6746 24.1179C33.7592 24.1258 33.8453 24.1296 33.9328 24.1296C34.0202 24.1296 34.106 24.1258 34.1909 24.1179C34.2759 24.11 34.3666 24.1006 34.4636 24.0899L34.4345 24.6837" fill="#BF1313"/>
<path d="M3.8768 23.0652C3.64405 22.9199 3.36051 22.8475 3.02575 22.8475C2.80257 22.8475 2.58107 22.8989 2.36039 23.0017C2.13972 23.1049 1.94319 23.2591 1.77123 23.4647C1.59885 23.6707 1.45937 23.9277 1.35278 24.2365C1.24619 24.5449 1.19289 24.9079 1.19289 25.3247C1.19289 25.641 1.23287 25.934 1.31281 26.2031C1.39275 26.4722 1.50808 26.7058 1.65839 26.9035C1.8087 27.1016 1.99315 27.2557 2.21133 27.3665C2.42951 27.4772 2.67933 27.5328 2.96038 27.5328C3.02325 27.5328 3.09486 27.5286 3.17481 27.5207C3.25517 27.5127 3.33261 27.5038 3.40797 27.4931C3.48292 27.4828 3.55204 27.4683 3.61491 27.4496C3.67819 27.4314 3.724 27.4113 3.75314 27.3903C3.76313 27.3268 3.76896 27.2478 3.77146 27.1529C3.77396 27.0576 3.77521 26.9525 3.77521 26.8362C3.77521 26.4091 3.76771 26.0938 3.75314 25.8905C3.73898 25.6873 3.72899 25.549 3.724 25.4747C3.77271 25.4854 3.83683 25.4948 3.91677 25.5027C3.99672 25.5107 4.11205 25.5144 4.26236 25.5144C4.43723 25.5144 4.56672 25.5107 4.65166 25.5027C4.73619 25.4948 4.80322 25.4854 4.85152 25.4747C4.84194 25.5172 4.83362 25.5859 4.82612 25.6807C4.81904 25.7756 4.8128 25.8854 4.8078 26.0092C4.80322 26.133 4.79947 26.2652 4.79698 26.4049C4.79448 26.5446 4.79364 26.6778 4.79364 26.8044V27.0656C4.79364 27.1978 4.79448 27.3202 4.79698 27.4337C4.79947 27.5473 4.8053 27.6276 4.8153 27.6753C4.49511 27.7753 4.17159 27.8547 3.84433 27.9126C3.51664 27.9706 3.19313 27.9996 2.87336 27.9996C2.45615 27.9996 2.07185 27.9402 1.72043 27.8215C1.3686 27.7029 1.06549 27.5286 0.811085 27.2992C0.556268 27.0698 0.35766 26.7927 0.21443 26.4685C0.0716153 26.1437 0 25.7784 0 25.3724C0 24.871 0.0761954 24.4318 0.229002 24.0543C0.381809 23.6773 0.592908 23.3633 0.861882 23.1124C1.13086 22.862 1.44979 22.6732 1.81828 22.5466C2.18676 22.42 2.5844 22.3569 3.01117 22.3569C3.37966 22.3569 3.6986 22.3976 3.96799 22.4793C4.23696 22.5616 4.5026 22.6788 4.7645 22.8316C4.72536 22.969 4.68789 23.1035 4.65166 23.2353C4.61544 23.3671 4.58504 23.5016 4.56048 23.639H4.45888C4.30358 23.4016 4.10955 23.2105 3.8768 23.0652Z" fill="#BF1313"/>
<path d="M8.04513 25.8074C8.04513 25.343 7.99183 24.9832 7.88524 24.7272C7.77865 24.4711 7.6017 24.3431 7.35437 24.3431C7.1312 24.3431 6.95508 24.4856 6.82684 24.7706C6.69859 25.0556 6.63406 25.5013 6.63406 26.1083C6.63406 26.3297 6.64613 26.5358 6.6707 26.7255C6.69485 26.9156 6.73482 27.0806 6.79061 27.2203C6.84641 27.36 6.91885 27.4693 7.00879 27.5487C7.09831 27.6277 7.21114 27.6674 7.34688 27.6674C7.81238 27.6674 8.04513 27.0474 8.04513 25.8074ZM5.55775 26.1003C5.55775 25.7466 5.6073 25.4383 5.70681 25.1743C5.80632 24.9108 5.93831 24.6902 6.10319 24.5136C6.26807 24.3366 6.45835 24.2048 6.67403 24.1179C6.88971 24.0305 7.11163 23.9871 7.3398 23.9871C7.90731 23.9871 8.34575 24.1614 8.65636 24.5094C8.96655 24.858 9.12186 25.3299 9.12186 25.9261C9.12186 26.248 9.07814 26.5381 8.9907 26.7965C8.90368 27.0553 8.78127 27.2754 8.62346 27.4576C8.46566 27.6394 8.27788 27.7753 8.0597 27.865C7.84152 27.9547 7.6017 27.9996 7.3398 27.9996C7.12162 27.9996 6.90678 27.9678 6.6961 27.9047C6.485 27.8412 6.29472 27.7347 6.12484 27.5842C5.95538 27.4338 5.81839 27.2375 5.71388 26.9946C5.60979 26.7516 5.55775 26.4535 5.55775 26.1003Z" fill="#BF1313"/>
<path d="M15.2614 25.6491C15.2514 25.2534 15.2064 24.9371 15.1265 24.6997C15.0465 24.4619 14.9121 24.3432 14.723 24.3432C14.616 24.3432 14.5265 24.3829 14.4536 24.4619C14.3812 24.5413 14.3229 24.6432 14.2792 24.767C14.2355 24.8908 14.203 25.031 14.1809 25.1861C14.1593 25.3422 14.1459 25.4963 14.1409 25.6491H15.2614ZM14.1409 26.0056C14.1409 26.2163 14.1605 26.4144 14.1992 26.599C14.238 26.7835 14.2975 26.9433 14.3774 27.0779C14.4574 27.2125 14.5594 27.318 14.6831 27.3942C14.8067 27.4708 14.9508 27.5091 15.1157 27.5091C15.4504 27.5091 15.7485 27.3905 16.0104 27.1531L16.0979 27.2241L15.9376 27.6675C15.8164 27.7675 15.6711 27.8483 15.5012 27.9086C15.3313 27.9694 15.1086 27.9997 14.8321 27.9997C14.5944 27.9997 14.3687 27.9642 14.1555 27.8932C13.9423 27.8217 13.7541 27.7044 13.5918 27.5409C13.4294 27.3774 13.3007 27.1704 13.2062 26.9195C13.1117 26.6691 13.0646 26.3696 13.0646 26.021C13.0646 25.6786 13.1071 25.38 13.1916 25.1268C13.2766 24.8735 13.394 24.6628 13.5447 24.4937C13.695 24.325 13.8732 24.1984 14.0793 24.1138C14.2854 24.0297 14.5094 23.9872 14.7522 23.9872C15.2322 23.9872 15.5995 24.1405 15.8539 24.446C16.1087 24.7525 16.2357 25.1852 16.2357 25.7444V25.9103C16.2357 25.958 16.2332 25.9897 16.2286 26.0056" fill="#BF1313"/>
<path d="M31.8287 25.6491C31.8191 25.2534 31.7741 24.9371 31.6942 24.6997C31.6143 24.4619 31.4798 24.3432 31.2903 24.3432C31.1837 24.3432 31.0942 24.3829 31.0214 24.4619C30.9485 24.5413 30.8906 24.6432 30.8469 24.767C30.8032 24.8908 30.7703 25.031 30.7486 25.1861C30.7266 25.3422 30.7132 25.4963 30.7087 25.6491H31.8287ZM30.7087 26.0056C30.7087 26.2163 30.7278 26.4144 30.767 26.599C30.8053 26.7835 30.8648 26.9433 30.9447 27.0779C31.0247 27.2125 31.1267 27.318 31.2504 27.3942C31.374 27.4708 31.5185 27.5091 31.6834 27.5091C32.0177 27.5091 32.3163 27.3905 32.5782 27.1531L32.6652 27.2241L32.5053 27.6675C32.3837 27.7675 32.2384 27.8483 32.0685 27.9086C31.8991 27.9694 31.6759 27.9997 31.3998 27.9997C31.1621 27.9997 30.9364 27.9642 30.7228 27.8932C30.5096 27.8217 30.3219 27.7044 30.1595 27.5409C29.9971 27.3774 29.8684 27.1704 29.7739 26.9195C29.679 26.6691 29.6319 26.3696 29.6319 26.021C29.6319 25.6786 29.6744 25.38 29.7593 25.1268C29.8443 24.8735 29.9617 24.6628 30.112 24.4937C30.2623 24.325 30.4405 24.1984 30.6466 24.1138C30.8527 24.0297 31.0771 23.9872 31.3195 23.9872C31.7995 23.9872 32.1672 24.1405 32.4216 24.446C32.676 24.7525 32.8034 25.1852 32.8034 25.7444V25.9103C32.8034 25.958 32.8009 25.9897 32.7963 26.0056" fill="#BF1313"/>
<path d="M39.3511 24.3435C39.3511 24.4122 39.3582 24.4781 39.3728 24.5416L38.7328 24.5257C38.7228 24.6472 38.7145 24.7869 38.7074 24.9453C38.6999 25.1037 38.6954 25.2644 38.6929 25.4279C38.6904 25.5915 38.6879 25.7499 38.6854 25.9026C38.6829 26.0559 38.682 26.1853 38.682 26.2904C38.682 26.5647 38.6879 26.7866 38.6999 26.9553C38.712 27.1244 38.7328 27.2534 38.762 27.3431C38.7911 27.4328 38.8319 27.4935 38.8856 27.5253C38.9389 27.5566 39.0068 27.573 39.0892 27.573C39.1813 27.573 39.2491 27.566 39.2928 27.5529C39.3366 27.5398 39.3799 27.5202 39.424 27.4935V27.8183C39.3266 27.8654 39.2054 27.9075 39.0601 27.9444C38.9148 27.9818 38.7715 28 38.6308 28C38.015 28 37.7073 27.5991 37.7073 26.7974C37.7073 26.6441 37.7094 26.4713 37.7144 26.2788C37.719 26.0863 37.7252 25.8882 37.7323 25.6854C37.7398 25.4821 37.7456 25.2817 37.751 25.0836C37.7556 24.886 37.7581 24.7028 37.7581 24.5337L37.2489 24.5416C37.2635 24.4781 37.2705 24.4122 37.2705 24.3435C37.2705 24.2805 37.2635 24.2094 37.2489 24.13L37.7581 24.1538C37.7581 23.9903 37.7556 23.8371 37.751 23.6946C37.7456 23.5525 37.7385 23.381 37.729 23.1801C37.8988 23.1063 38.0662 23.0288 38.2307 22.947C38.3956 22.8652 38.5605 22.7793 38.7253 22.6896L38.7982 22.7452C38.7886 22.8297 38.7799 22.9283 38.7728 23.0418C38.7653 23.1554 38.7582 23.2741 38.7511 23.3979C38.7437 23.5221 38.7387 23.6488 38.7366 23.7777C38.7341 23.9071 38.7328 24.03 38.7328 24.1459L39.3728 24.13C39.3582 24.2094 39.3511 24.2805 39.3511 24.3435Z" fill="#BF1313"/>
<path d="M44.2463 25.8074C44.2463 25.343 44.1926 24.9832 44.086 24.7272C43.9794 24.4711 43.8024 24.3431 43.5551 24.3431C43.3319 24.3431 43.1562 24.4856 43.028 24.7706C42.8993 25.0556 42.8352 25.5013 42.8352 26.1083C42.8352 26.3297 42.8473 26.5358 42.8714 26.7255C42.8956 26.9156 42.9356 27.0806 42.9918 27.2203C43.0471 27.36 43.1196 27.4693 43.2095 27.5487C43.2995 27.6277 43.4123 27.6674 43.548 27.6674C44.0135 27.6674 44.2463 27.0474 44.2463 25.8074ZM41.7585 26.1003C41.7585 25.7466 41.808 25.4383 41.908 25.1743C42.0071 24.9108 42.139 24.6902 42.3039 24.5136C42.4688 24.3366 42.6591 24.2048 42.8752 24.1179C43.0909 24.0305 43.3128 23.9871 43.5405 23.9871C44.108 23.9871 44.5469 24.1614 44.8571 24.5094C45.1677 24.858 45.323 25.3299 45.323 25.9261C45.323 26.248 45.2789 26.5381 45.1918 26.7965C45.1044 27.0553 44.982 27.2754 44.8246 27.4576C44.6668 27.6394 44.479 27.7753 44.2609 27.865C44.0423 27.9547 43.8024 27.9996 43.5405 27.9996C43.3224 27.9996 43.1079 27.9678 42.8968 27.9047C42.6857 27.8412 42.4955 27.7347 42.326 27.5842C42.1561 27.4338 42.0191 27.2375 41.915 26.9946C41.8105 26.7516 41.7585 26.4535 41.7585 26.1003Z" fill="#BF1313"/>
<path d="M47.8467 24.2405C47.8421 24.2722 47.8396 24.3068 47.8396 24.3433C47.8396 24.375 47.8421 24.4082 47.8467 24.4423C47.8517 24.4769 47.8563 24.5096 47.8613 24.5414L47.1776 24.5255V25.1824C47.1776 25.6996 47.1826 26.1743 47.1922 26.6069C47.2018 27.0396 47.2163 27.4694 47.2359 27.8969C47.1726 27.8862 47.0927 27.8811 46.9957 27.8811H46.3848C46.2878 27.8811 46.2079 27.8862 46.145 27.8969C46.1642 27.4694 46.1787 27.0396 46.1883 26.6069C46.1983 26.1743 46.2029 25.6996 46.2029 25.1824V24.5334L45.6937 24.5414C45.7082 24.4778 45.7157 24.4119 45.7157 24.3433C45.7157 24.2802 45.7082 24.2087 45.6937 24.1297L46.2029 24.1536C46.2516 23.8316 46.312 23.5336 46.3848 23.2593C46.4577 22.985 46.5535 22.7477 46.6721 22.5468C46.7908 22.3463 46.9399 22.1894 47.1193 22.0758C47.2988 21.9628 47.5194 21.9058 47.7813 21.9058C47.8638 21.9058 47.9658 21.9193 48.087 21.9455C48.0724 22.03 48.0636 22.1445 48.0616 22.2898C48.0591 22.4347 48.0578 22.5762 48.0578 22.7131V22.9743L47.9704 23.0061C47.8734 22.9477 47.7622 22.8953 47.636 22.8477C47.5099 22.8 47.3887 22.7767 47.2721 22.7767C47.1314 22.7767 47.0236 22.8014 46.9486 22.8519C46.8732 22.9019 46.8358 22.9902 46.8358 23.1168C46.8358 23.2383 46.8687 23.3939 46.934 23.5835C46.9994 23.7737 47.0806 23.9611 47.1776 24.1456L47.8613 24.1297C47.8563 24.1722 47.8517 24.2087 47.8467 24.2405Z" fill="#BF1313"/>
<path d="M52.7486 23.9481C52.7486 23.7159 52.7265 23.5313 52.6828 23.394C52.6395 23.2566 52.5725 23.1524 52.483 23.0814C52.393 23.0099 52.2769 22.9637 52.1336 22.9426C51.9908 22.9216 51.8197 22.9113 51.6211 22.9113C51.6065 23.6285 51.599 24.3462 51.599 25.0638C51.6282 25.069 51.6561 25.0732 51.6827 25.0755C51.7093 25.0783 51.7347 25.0797 51.7593 25.0797C52.0791 25.0797 52.3239 24.9858 52.4938 24.7984C52.6637 24.6115 52.7486 24.3279 52.7486 23.9481ZM51.599 25.404V25.7287C51.599 26.1665 51.604 26.5557 51.6136 26.8958C51.6232 27.2359 51.6381 27.57 51.6573 27.8971C51.5749 27.8863 51.4849 27.8812 51.3883 27.8812H50.7338C50.6364 27.8812 50.5468 27.8863 50.4644 27.8971C50.484 27.57 50.4985 27.2359 50.5081 26.8958C50.5177 26.5557 50.5227 26.1665 50.5227 25.7287V24.6522C50.5227 24.2144 50.5177 23.8252 50.5081 23.4851C50.4985 23.1445 50.484 22.8029 50.4644 22.46C50.5468 22.4707 50.6364 22.4796 50.7338 22.4876C50.8304 22.4955 50.9395 22.4997 51.0611 22.4997C51.1918 22.4997 51.3409 22.4932 51.5082 22.4796C51.6756 22.4665 51.883 22.46 52.1299 22.46C52.3143 22.46 52.4721 22.4651 52.6029 22.4759C52.7336 22.4862 52.8465 22.5025 52.9414 22.5235C53.0355 22.5446 53.1183 22.5721 53.1887 22.6062C53.2587 22.6408 53.3253 22.6815 53.3886 22.7291C53.5339 22.845 53.6492 22.9889 53.7341 23.1604C53.8187 23.3318 53.8611 23.5365 53.8611 23.7738C53.8611 24.1588 53.7641 24.4728 53.5705 24.7157C53.3765 24.9582 53.0975 25.1297 52.7336 25.2302C52.9668 25.6787 53.2162 26.1258 53.4831 26.5715C53.7496 27.0173 54.0164 27.4593 54.2829 27.8971C54.1718 27.8863 54.0627 27.8812 53.9561 27.8812H53.2974C53.1887 27.8812 53.0784 27.8863 52.9668 27.8971L51.6648 25.404" fill="#BF1313"/>
<path d="M64.7132 23.9479C64.5871 24.2642 64.4684 24.5768 64.3568 24.8856C64.2452 25.194 64.1361 25.5094 64.0295 25.8313H65.3607C65.2541 25.5094 65.1483 25.194 65.0442 24.8856C64.9397 24.5768 64.8298 24.2642 64.7132 23.9479ZM67.288 27.8969C67.1719 27.8861 67.0615 27.881 66.957 27.881H66.3391C66.2346 27.881 66.1318 27.8861 66.0298 27.8969C65.9523 27.6385 65.872 27.3745 65.7899 27.1054C65.7071 26.8363 65.6201 26.5672 65.528 26.2981C65.3727 26.2929 65.2174 26.2892 65.0621 26.2864C64.9068 26.2836 64.7519 26.2822 64.597 26.2822C64.4709 26.2822 64.3447 26.2836 64.2186 26.2864C64.0924 26.2892 63.9662 26.2929 63.8405 26.2981C63.7431 26.5672 63.6536 26.8363 63.5711 27.1054C63.4887 27.3745 63.4137 27.6385 63.3459 27.8969C63.2876 27.8861 63.2305 27.881 63.1747 27.881H62.8291C62.7709 27.881 62.708 27.8861 62.6401 27.8969C62.6984 27.7595 62.7759 27.5698 62.8729 27.3269C62.9699 27.0844 63.0765 26.8101 63.1931 26.5041C63.3092 26.1981 63.4341 25.8696 63.5678 25.5187C63.701 25.1678 63.8343 24.8128 63.9675 24.4539C64.1012 24.0956 64.2319 23.7419 64.3605 23.3938C64.4888 23.0457 64.6066 22.721 64.7132 22.4201C64.7615 22.4309 64.8077 22.4402 64.8514 22.4481C64.8952 22.4556 64.941 22.4598 64.9897 22.4598C65.038 22.4598 65.0842 22.4556 65.1279 22.4481C65.1716 22.4402 65.2174 22.4309 65.2662 22.4201C65.421 22.8687 65.5872 23.349 65.7641 23.8606C65.9411 24.3726 66.1193 24.8749 66.2987 25.3683C66.4782 25.8617 66.6527 26.3298 66.8225 26.7732C66.9924 27.2162 67.1473 27.5909 67.288 27.8969Z" fill="#BF1313"/>
<path d="M67.8991 23.2435C67.8891 22.8108 67.8745 22.373 67.8554 21.9297C67.9182 21.9404 67.9986 21.9493 68.0952 21.9572C68.1922 21.9652 68.2942 21.9694 68.4008 21.9694C68.5074 21.9694 68.6094 21.9652 68.7064 21.9572C68.803 21.9493 68.8834 21.9404 68.9463 21.9297C68.9271 22.373 68.9125 22.8108 68.9025 23.2435C68.893 23.6761 68.888 24.1508 68.888 24.668V25.1825C68.888 25.6997 68.893 26.1744 68.9025 26.607C68.9125 27.0397 68.9271 27.4695 68.9463 27.897C68.8834 27.8863 68.803 27.8811 68.7064 27.8811H68.0952C67.9986 27.8811 67.9182 27.8863 67.8554 27.897C67.8745 27.4695 67.8891 27.0397 67.8991 26.607C67.9087 26.1744 67.9137 25.6997 67.9137 25.1825V24.668C67.9137 24.1508 67.9087 23.6761 67.8991 23.2435Z" fill="#BF1313"/>
<path d="M73.1032 26.9159C73.1082 27.327 73.1253 27.6546 73.1544 27.8971C73.0715 27.8863 72.982 27.8812 72.885 27.8812H72.2305C72.1335 27.8812 72.044 27.8863 71.9615 27.8971C71.9807 27.57 71.9952 27.2364 72.0048 26.8958C72.0148 26.5557 72.0194 26.1665 72.0194 25.7287V24.6522C72.0194 24.2144 72.0148 23.8252 72.0048 23.4846C71.9952 23.1445 71.9807 22.8029 71.9615 22.46C72.044 22.4707 72.1335 22.4796 72.2305 22.4876C72.3275 22.4955 72.4366 22.4997 72.5578 22.4997C72.6789 22.4997 72.788 22.4955 72.885 22.4876C72.982 22.4796 73.0715 22.4707 73.1544 22.46C73.1298 22.6184 73.1144 22.8557 73.1069 23.1725C73.0994 23.4888 73.0961 23.8397 73.0961 24.2247V24.9844C73.261 24.7737 73.438 24.5429 73.627 24.292C73.816 24.0415 73.998 23.7976 74.1724 23.5598C74.3469 23.3225 74.5047 23.1052 74.6454 22.9071C74.7861 22.7095 74.8877 22.5604 74.9506 22.46C75.0189 22.4707 75.0863 22.4796 75.1546 22.4876C75.2225 22.4955 75.2904 22.4997 75.3582 22.4997C75.4261 22.4997 75.4952 22.4955 75.5656 22.4876C75.636 22.4796 75.7122 22.4707 75.7946 22.46C75.7122 22.5497 75.586 22.695 75.4165 22.8954C75.2467 23.0959 75.0659 23.3122 74.8744 23.5444C74.6829 23.7766 74.5001 24.0018 74.3252 24.221C74.1508 24.4401 74.015 24.6125 73.918 24.7391C74.0729 24.9979 74.2453 25.2829 74.4343 25.5941C74.6234 25.9053 74.8115 26.2099 74.9981 26.508C75.1846 26.8061 75.3582 27.0808 75.5181 27.3312C75.678 27.5817 75.8067 27.7704 75.9037 27.8971C75.7629 27.8863 75.6372 27.8812 75.5256 27.8812H74.8819C74.7774 27.8812 74.6721 27.8863 74.5655 27.8971C74.3182 27.4962 74.0754 27.0883 73.8381 26.6743C73.6003 26.2604 73.358 25.8473 73.1107 25.4357H73.0961C73.0961 26.0109 73.0982 26.5043 73.1032 26.9159Z" fill="#BF1313"/>
<path d="M76.3108 23.2435C76.3012 22.8108 76.2866 22.373 76.2675 21.9297C76.3303 21.9404 76.4103 21.9493 76.5073 21.9572C76.6043 21.9652 76.7059 21.9694 76.8129 21.9694C76.9195 21.9694 77.0211 21.9652 77.1181 21.9572C77.2151 21.9493 77.2951 21.9404 77.3583 21.9297C77.3392 22.373 77.3246 22.8108 77.3146 23.2435C77.305 23.6761 77.3001 24.1508 77.3001 24.668L77.3146 24.6839C77.4408 24.462 77.5948 24.291 77.7764 24.1695C77.9583 24.048 78.1657 23.9873 78.3984 23.9873C78.7623 23.9873 79.0421 24.1022 79.2387 24.3316C79.4352 24.561 79.533 24.932 79.533 25.4436C79.533 25.7127 79.5285 25.9501 79.5189 26.1557C79.5089 26.3617 79.5043 26.5673 79.5043 26.7733C79.5043 26.942 79.5076 27.1252 79.5151 27.3233C79.5222 27.5209 79.5305 27.7125 79.5405 27.897C79.4772 27.8863 79.3973 27.8811 79.3007 27.8811H78.6895C78.5925 27.8811 78.5125 27.8863 78.4492 27.897C78.4834 27.6228 78.505 27.2994 78.515 26.9275C78.5246 26.5556 78.5296 26.1295 78.5296 25.6492C78.5296 25.317 78.4771 25.0731 78.373 24.9175C78.2685 24.7615 78.122 24.6839 77.9329 24.6839C77.7148 24.6839 77.5549 24.7867 77.4529 24.9923C77.3513 25.1983 77.3001 25.4833 77.3001 25.8473V26.1636C77.3001 26.2379 77.3013 26.3444 77.3038 26.4841C77.3063 26.6243 77.3096 26.7771 77.3146 26.9434C77.3196 27.1093 77.3259 27.2784 77.333 27.4499C77.34 27.6213 77.3484 27.7704 77.3583 27.897C77.2951 27.8863 77.2151 27.8811 77.1181 27.8811H76.5073C76.4103 27.8811 76.3303 27.8863 76.2675 27.897C76.2866 27.4695 76.3012 27.0397 76.3108 26.607C76.3208 26.1744 76.3258 25.6997 76.3258 25.1825V24.668C76.3258 24.1508 76.3208 23.6761 76.3108 23.2435Z" fill="#BF1313"/>
<path d="M84.0856 25.8475C84.0856 25.5256 84.0823 25.2233 84.0748 24.9411C84.0677 24.6589 84.0519 24.3753 84.0277 24.0902C84.0956 24.101 84.1756 24.1103 84.2676 24.1183C84.3596 24.1258 84.4616 24.13 84.5732 24.13C84.8009 24.13 84.9829 24.1169 85.1186 24.0902C85.0945 24.3753 85.0787 24.6589 85.0716 24.9411C85.0641 25.2233 85.0607 25.5256 85.0607 25.8475V26.1638C85.0607 26.4857 85.0641 26.7894 85.0716 27.0739C85.0787 27.3589 85.0945 27.6332 85.1186 27.8972C85.0557 27.8864 84.9766 27.8813 84.8825 27.8813H84.2676C84.1756 27.8813 84.0956 27.8864 84.0277 27.8972C84.0519 27.6332 84.0677 27.3589 84.0748 27.0739C84.0823 26.7894 84.0856 26.4857 84.0856 26.1638V25.8475ZM83.9986 22.5947C83.9986 22.4204 84.0544 22.2728 84.166 22.1513C84.2771 22.0303 84.4133 21.9695 84.5732 21.9695C84.7331 21.9695 84.8688 22.0303 84.9804 22.1513C85.092 22.2728 85.1478 22.4204 85.1478 22.5947C85.1478 22.7689 85.092 22.9166 84.9804 23.0381C84.8688 23.1591 84.7331 23.2198 84.5732 23.2198C84.4133 23.2198 84.2771 23.1591 84.166 23.0381C84.0544 22.9166 83.9986 22.7689 83.9986 22.5947Z" fill="#BF1313"/>
<path d="M86.9803 24.6838C87.116 24.4619 87.2751 24.2909 87.457 24.1694C87.639 24.048 87.8459 23.9872 88.0787 23.9872C88.2968 23.9872 88.485 24.0522 88.6424 24.1811C88.7998 24.3105 88.9226 24.4965 89.0101 24.739C89.1554 24.4965 89.3253 24.3105 89.5189 24.1811C89.7129 24.0522 89.919 23.9872 90.1372 23.9872C90.5011 23.9872 90.7809 24.1021 90.9774 24.3316C91.1739 24.561 91.2722 24.9319 91.2722 25.4435C91.2722 25.7127 91.2672 25.95 91.2572 26.1556C91.2476 26.3616 91.243 26.5672 91.243 26.7733C91.243 26.9419 91.2468 27.1251 91.2539 27.3232C91.261 27.5208 91.2693 27.7124 91.2793 27.8969C91.216 27.8862 91.136 27.881 91.0395 27.881H90.4282C90.3312 27.881 90.2513 27.8862 90.1884 27.8969C90.2221 27.6227 90.2438 27.2993 90.2538 26.9274C90.2633 26.5555 90.2683 26.1294 90.2683 25.6491C90.2683 25.3169 90.2175 25.073 90.1155 24.917C90.0135 24.7614 89.8703 24.6838 89.6862 24.6838C89.5697 24.6838 89.4739 24.7128 89.399 24.7707C89.3236 24.8291 89.2645 24.9039 89.2207 24.9964C89.177 25.0889 89.1479 25.1875 89.1333 25.2931C89.1192 25.3987 89.1117 25.4987 89.1117 25.594V26.1635C89.1117 26.4854 89.1154 26.7891 89.1225 27.0737C89.13 27.3587 89.1458 27.6329 89.17 27.8969C89.1067 27.8862 89.028 27.881 88.9335 27.881H88.3189C88.2269 27.881 88.1465 27.8862 88.0787 27.8969C88.1028 27.6329 88.119 27.3587 88.1261 27.0737C88.1332 26.7891 88.1369 26.4854 88.1369 26.1635V25.6809C88.1369 25.3641 88.1007 25.1188 88.0279 24.945C87.955 24.7707 87.8172 24.6838 87.6136 24.6838C87.395 24.6838 87.2351 24.7866 87.1331 24.9922C87.0315 25.1983 86.9803 25.4833 86.9803 25.8472V26.1635C86.9803 26.4854 86.984 26.7891 86.9915 27.0737C86.9986 27.3587 87.0144 27.6329 87.0386 27.8969C86.9757 27.8862 86.8966 27.881 86.8025 27.881H86.1879C86.0955 27.881 86.0156 27.8862 85.9477 27.8969C85.9718 27.6329 85.9877 27.3587 85.9947 27.0737C86.0022 26.7891 86.006 26.4854 86.006 26.1635V25.8472C86.006 25.5253 86.0022 25.2235 85.9947 24.9408C85.9877 24.6586 85.9718 24.375 85.9477 24.09C86.0347 24.1007 86.1209 24.1101 86.2058 24.118C86.2904 24.126 86.3765 24.1297 86.464 24.1297C86.5514 24.1297 86.6372 24.126 86.7221 24.118C86.8071 24.1101 86.8978 24.1007 86.9949 24.09L86.9657 24.6838" fill="#BF1313"/>
<path d="M93.7869 26.6938C93.7869 26.4672 93.7877 26.2944 93.7902 26.1757C93.7927 26.057 93.7939 25.9528 93.7939 25.8631C93.6923 25.9262 93.5845 25.9776 93.4704 26.0173C93.3563 26.057 93.2522 26.107 93.1577 26.1677C93.0632 26.2285 92.9854 26.3116 92.925 26.4168C92.8642 26.5224 92.8338 26.6756 92.8338 26.876C92.8338 27.0713 92.8713 27.2199 92.9466 27.3232C93.0216 27.426 93.1223 27.4774 93.2485 27.4774C93.4084 27.4774 93.5383 27.4115 93.6378 27.2797C93.7369 27.148 93.7869 26.9527 93.7869 26.6938ZM92.0627 24.5413C92.2667 24.3619 92.4857 24.2246 92.721 24.1297C92.9562 24.0349 93.1902 23.9872 93.423 23.9872C93.617 23.9872 93.7952 24.011 93.9576 24.0587C94.12 24.1059 94.2607 24.1811 94.3793 24.2839C94.4984 24.3872 94.5905 24.5203 94.6558 24.6838C94.7216 24.8474 94.7541 25.045 94.7541 25.2772C94.7541 25.615 94.7508 25.9276 94.7433 26.2154C94.7358 26.5027 94.7324 26.7891 94.7324 27.0737C94.7324 27.2003 94.7408 27.2994 94.7578 27.3704C94.7749 27.4419 94.8003 27.4961 94.834 27.533C94.8682 27.5699 94.9131 27.5937 94.9685 27.604C95.0243 27.6147 95.0888 27.6199 95.1613 27.6199V27.81C95.021 27.8731 94.9019 27.9208 94.8049 27.9525C94.7083 27.9838 94.6038 27.9997 94.4922 27.9997C94.3127 27.9997 94.1674 27.9525 94.0558 27.8572C93.9442 27.7624 93.8597 27.6255 93.8014 27.4456C93.6898 27.6147 93.5599 27.7493 93.4121 27.8493C93.2643 27.9497 93.0786 27.9997 92.8559 27.9997C92.6714 27.9997 92.514 27.9731 92.3829 27.9208C92.2521 27.868 92.1439 27.7927 92.0593 27.6951C91.9744 27.5974 91.9124 27.4867 91.8736 27.3629C91.8349 27.2386 91.8154 27.1134 91.8154 26.9868C91.8154 26.8125 91.8412 26.6621 91.892 26.5359C91.9428 26.4093 92.0156 26.3009 92.1101 26.2112C92.2047 26.1215 92.3175 26.0463 92.4487 25.9855C92.5794 25.9248 92.7272 25.8734 92.8921 25.8313C93.0957 25.7785 93.2568 25.7323 93.3759 25.693C93.4946 25.6533 93.5833 25.6136 93.6411 25.5739C93.6994 25.5347 93.7369 25.4907 93.754 25.4435C93.771 25.3959 93.7794 25.338 93.7794 25.2693C93.7794 25.0796 93.7177 24.9175 93.5941 24.7829C93.4704 24.6483 93.2993 24.5811 93.0811 24.5811C92.9987 24.5811 92.9137 24.5927 92.8267 24.6166C92.7393 24.6404 92.6556 24.6731 92.5756 24.7156C92.4957 24.7577 92.4228 24.8039 92.3575 24.8539C92.2921 24.9039 92.2421 24.9581 92.2084 25.016H92.1572" fill="#BF1313"/>
<path d="M95.7085 23.2435C95.6985 22.8109 95.6839 22.3731 95.6647 21.9297C95.7276 21.9404 95.808 21.9493 95.905 21.9573C96.0016 21.9652 96.1036 21.9694 96.2102 21.9694C96.3168 21.9694 96.4188 21.9652 96.5158 21.9573C96.6128 21.9493 96.6927 21.9404 96.7556 21.9297C96.7365 22.3731 96.7219 22.8109 96.7123 23.2435C96.7023 23.6762 96.6977 24.1509 96.6977 24.6681L96.7123 24.684C96.8385 24.462 96.9921 24.291 97.1741 24.1696C97.356 24.0481 97.5634 23.9873 97.7961 23.9873C98.1596 23.9873 98.4398 24.1023 98.6364 24.3317C98.8325 24.5611 98.9307 24.9321 98.9307 25.4437C98.9307 25.7128 98.9257 25.9501 98.9162 26.1557C98.9062 26.3618 98.9016 26.5673 98.9016 26.7734C98.9016 26.9421 98.9053 27.1252 98.9124 27.3233C98.9199 27.5209 98.9282 27.7125 98.9382 27.8971C98.8749 27.8863 98.795 27.8812 98.698 27.8812H98.0867C97.9897 27.8812 97.9098 27.8863 97.8469 27.8971C97.8806 27.6228 97.9027 27.2995 97.9123 26.9276C97.9223 26.5557 97.9269 26.1296 97.9269 25.6493C97.9269 25.3171 97.8748 25.0732 97.7707 24.9176C97.6662 24.7615 97.5196 24.684 97.3306 24.684C97.112 24.684 96.9521 24.7868 96.8505 24.9923C96.7485 25.1984 96.6977 25.4834 96.6977 25.8474V26.1637C96.6977 26.238 96.6986 26.3445 96.7011 26.4842C96.7036 26.6243 96.7073 26.7771 96.7123 26.9435C96.7169 27.1093 96.7231 27.2785 96.7302 27.4499C96.7377 27.6214 96.746 27.7704 96.7556 27.8971C96.6927 27.8863 96.6128 27.8812 96.5158 27.8812H95.905C95.808 27.8812 95.7276 27.8863 95.6647 27.8971C95.6839 27.4696 95.6985 27.0397 95.7085 26.6071C95.718 26.1744 95.723 25.6997 95.723 25.1825V24.6681C95.723 24.1509 95.718 23.6762 95.7085 23.2435Z" fill="#BF1313"/>
<path d="M9.04063 4.42846C8.85451 4.59526 8.58096 4.86905 8.21996 5.24983C8.1546 5.21432 7.84274 4.94053 7.2848 4.42846C7.16406 4.48826 7.01916 4.63684 6.8497 4.87512C6.67982 5.11294 6.54034 5.26198 6.43125 5.32132C6.35464 5.29749 6.19059 5.15499 5.9391 4.89288C5.6872 4.63123 5.53397 4.45229 5.47943 4.35697C5.6543 4.1313 5.95534 3.83929 6.38212 3.48233C6.57906 3.63698 6.87968 3.86919 7.2848 4.17849C7.35059 4.15466 7.5034 4.01216 7.74406 3.75005C7.93017 3.54774 8.09422 3.44636 8.23662 3.44636C8.32406 3.44636 8.47978 3.58325 8.7042 3.85704C8.92821 4.1313 9.04063 4.32146 9.04063 4.42846ZM11.0921 12.5885C10.9938 13.0052 10.8514 13.4342 10.6653 13.8743H10.2881C9.60938 13.8743 9.11182 13.5944 8.79455 13.0352C8.65215 12.7852 8.48811 12.2554 8.30241 11.4457C8.17083 10.8864 7.99055 10.6065 7.76071 10.6065C7.26815 10.6065 6.78683 11.0354 6.31633 11.8923C6.08691 12.3329 5.66555 13.1305 5.05265 14.285C4.5934 15.1419 4.18286 15.5708 3.82187 15.5708C3.24187 15.5708 2.71683 14.9751 2.24633 13.785C1.85245 12.7852 1.65551 11.9101 1.65551 11.1602C1.65551 10.1487 1.84162 9.19599 2.21386 8.30313C2.65104 7.24394 3.26394 6.58936 4.0517 6.33893C4.19369 6.29174 4.41811 6.26184 4.72456 6.24969C5.03059 6.23801 5.30456 6.23801 5.54522 6.24969L6.25096 6.28566C6.97294 6.32117 7.55253 6.18474 7.99055 5.87451V5.98197C7.59666 6.42256 6.84179 6.67813 5.7255 6.74962C4.51137 6.83325 3.69071 7.01173 3.26394 7.28552C2.49824 7.78545 2.11518 8.80913 2.11518 10.3566C2.11518 11.0948 2.27381 11.8447 2.59109 12.6067C2.9629 13.5112 3.44464 14.0173 4.03547 14.1242C4.41811 13.9098 4.85571 13.3683 5.34827 12.4992C6.10315 11.1779 6.51868 10.458 6.5953 10.3388C7.08786 9.61275 7.55794 9.24972 8.00678 9.24972C8.38984 9.24972 8.65757 9.53519 8.81079 10.1066C8.8874 10.4042 9.02439 10.9401 9.22133 11.7138C9.43992 12.2969 9.81174 12.5885 10.3372 12.5885" fill="#BF1313"/>
<path d="M13.4218 14.1781C13.4218 13.7613 13.2956 13.4637 13.0442 13.2852C12.7048 13.4992 12.5354 13.7552 12.5354 14.0529C12.5354 14.493 12.7215 14.7135 13.0937 14.7135C13.3123 14.7135 13.4218 14.535 13.4218 14.1781ZM15.8176 12.5886C15.6644 13.4459 15.5332 13.8744 15.4237 13.8744H15.1943C14.8658 13.8744 14.5156 13.7973 14.1438 13.6422C13.8486 15.2611 13.3831 16.0708 12.749 16.0708C12.0923 16.0708 11.7642 15.6657 11.7642 14.8565C11.7642 14.7967 11.7971 14.4397 11.8625 13.7851C11.7314 13.7851 11.5315 13.8001 11.2638 13.8295C10.9956 13.8594 10.7964 13.8743 10.6653 13.8743L10.3857 13.8744C10.4406 13.2791 10.5335 12.8507 10.6646 12.5886H11.4195C11.8463 12.5886 12.1581 12.5054 12.3551 12.3386C12.4754 12.2438 12.6311 12.0144 12.8227 11.6513C13.0142 11.2883 13.1645 11.0472 13.274 10.9281C13.7553 12.0349 14.3624 12.5886 15.0956 12.5886" fill="#BF1313"/>
<path d="M20.0175 16.9097C19.8422 17.1242 19.547 17.4157 19.1315 17.7844C18.9233 17.618 18.6227 17.3798 18.2288 17.0705C18.1522 17.106 18.0015 17.2401 17.7775 17.4718C17.553 17.7045 17.3919 17.8204 17.2932 17.8204C17.2383 17.8204 16.9593 17.5461 16.4563 16.999V16.8383C16.6533 16.6715 16.9322 16.3977 17.2932 16.0169C17.4464 16.0884 17.7583 16.3622 18.2288 16.8383C18.2946 16.8027 18.442 16.6532 18.6718 16.3921C18.8579 16.1776 19.0053 16.0706 19.1148 16.0706C19.1806 16.0706 19.3363 16.1893 19.5828 16.4276C19.8289 16.6658 19.9738 16.8261 20.0175 16.9097ZM21.5273 12.5884C21.5052 12.7197 21.429 12.9575 21.2974 13.3028C21.1663 13.684 21.0788 13.8742 21.0351 13.8742H20.0342C19.2681 13.8742 18.7538 13.3981 18.4915 12.4459C17.9224 13.3981 17.0363 13.8742 15.8326 13.8742H15.1926C15.171 13.4574 15.2476 13.029 15.4225 12.5884H16.3414C16.8993 12.5884 17.304 12.5169 17.556 12.3744C17.7308 12.2791 17.9552 12.059 18.2288 11.7138C18.5569 11.3208 18.7813 11.0709 18.9017 10.9634C18.945 10.9994 19.0353 11.1928 19.1723 11.5442C19.3089 11.895 19.4321 12.1244 19.5416 12.2314C19.7823 12.4697 20.1433 12.5884 20.625 12.5884" fill="#BF1313"/>
<path d="M23.5299 6.89242C23.4645 7.04707 23.3384 7.21994 23.1527 7.4101C22.9228 7.62455 22.7804 7.7792 22.7259 7.87452C22.5947 7.79135 22.4086 7.64231 22.168 7.42832C21.8832 7.16621 21.7412 6.9938 21.7412 6.91017C21.7412 6.72001 22.031 6.41632 22.611 5.99956C22.8188 6.19018 23.1252 6.4878 23.5299 6.89242ZM28.2732 10.2672C28.2732 11.0171 27.7148 11.3922 26.599 11.3922C26.0847 11.3922 25.5376 11.6128 24.9576 12.0529C24.6404 12.3145 24.159 12.7075 23.5137 13.2312C22.8462 13.6597 22.0968 13.8741 21.2653 13.8741H20.5266C20.5816 13.434 20.7515 13.0051 21.0359 12.5883H21.3802C22.7917 12.5883 24.0004 12.059 25.0072 10.9993L24.1207 10.6064C23.7926 10.4634 23.4862 10.4101 23.2018 10.4456V10.0709C23.2018 9.59483 23.6065 9.0351 24.4164 8.3922C25.1383 7.82079 25.7508 7.47551 26.2542 7.35684C26.3637 7.14238 26.4187 6.87466 26.4187 6.55321C26.4187 5.72016 26.2813 4.92822 26.0081 4.17833C25.877 4.47595 25.7508 4.94036 25.6309 5.57111C25.5102 6.20233 25.3952 6.6546 25.2861 6.92839L25.1383 6.7672C25.3024 4.86281 25.7621 3.35695 26.5169 2.2501C26.7247 2.50006 26.8942 3.00607 27.0257 3.76764C27.1348 4.39885 27.1898 4.95204 27.1898 5.42814C27.1898 6.17804 27.1132 6.74945 26.9599 7.14238C26.763 7.64231 26.3937 8.053 25.852 8.37444C25.3107 8.69589 24.8207 8.98137 24.3835 9.2318C25.7729 9.8504 26.8121 10.1602 27.5016 10.1602C27.7202 10.1602 27.9334 10.1419 28.1416 10.1064C28.229 10.1419 28.2732 10.1957 28.2732 10.2672Z" fill="#BF1313"/>
<path d="M32.8526 7.26771C32.9513 7.88678 33.0004 8.48155 33.0004 9.05297C33.0004 10.5172 32.7381 11.7376 32.2126 12.7137C31.6002 13.8565 30.6754 14.5466 29.4396 14.7848C28.7722 14.9157 28.1651 14.9157 27.6176 14.7848C27.6726 14.725 27.76 14.6536 27.8803 14.5709C28.3071 14.3798 28.9416 14.0765 29.784 13.6598C30.5609 13.2673 31.1188 12.8683 31.4578 12.4637C32.0594 11.7493 32.3604 10.785 32.3604 9.57111C32.3604 8.38063 32.0211 6.8631 31.3428 5.01757C31.2883 5.07737 31.2608 5.25585 31.2608 5.55347C31.2608 6.10106 31.3129 6.9257 31.417 8.02648C31.5206 9.12772 31.5727 9.9519 31.5727 10.4995C31.5727 10.7733 31.5564 10.9817 31.5235 11.1246L31.3266 11.0354C31.3045 10.5827 31.2004 9.67811 31.0147 8.32129C30.8507 7.11867 30.7687 6.17254 30.7687 5.48199C30.7687 4.30319 30.9656 3.30987 31.3595 2.50017C32.0161 3.55983 32.5137 5.14886 32.8526 7.26771Z" fill="#BF1313"/>
<path d="M46.0788 12.588C46.0788 12.7548 45.9368 13.1837 45.6524 13.8738C45.0832 13.8738 44.711 13.743 44.5361 13.4809C44.0111 14.3023 43.4856 15.1297 42.961 15.9628C42.3702 16.7127 41.5054 17.0878 40.3679 17.0878C39.3611 17.0878 38.5733 16.7846 38.0046 16.1772C37.4358 15.5703 37.151 14.719 37.151 13.6239C37.151 12.2432 37.6161 11.142 38.5463 10.3206C39.115 9.82067 40.0011 9.35625 41.2048 8.92781C42.244 8.5587 42.8132 8.25548 42.9115 8.01719C42.7254 8.56478 42.1728 9.02873 41.2539 9.40998C40.0065 9.92159 39.2462 10.2846 38.9726 10.4991C38.1957 11.0943 37.8076 11.9694 37.8076 13.1239C37.8076 14.0046 38.0808 14.683 38.6283 15.1591C39.1313 15.5997 39.7933 15.8203 40.614 15.8203C41.3359 15.8203 42.0088 15.6352 42.6325 15.2666C43.3874 14.8139 43.765 14.2308 43.765 13.5169C43.765 13.3379 43.7238 13.0823 43.6418 12.7488C43.5598 12.4156 43.5185 12.1596 43.5185 11.9811C43.5185 11.8143 43.5951 11.6302 43.7484 11.4274C43.9782 11.1303 44.0985 10.963 44.1094 10.9275H44.2901C44.3338 11.3321 44.4595 11.6952 44.6673 12.0166C44.908 12.3979 45.2036 12.588 45.5537 12.588" fill="#BF1313"/>
<path d="M49.4412 11.1246C49.4957 11.1839 49.5232 11.297 49.5232 11.4638C49.5232 11.7493 49.4791 12.0053 49.3917 12.2315C49.1618 12.815 48.8774 13.2313 48.5385 13.4813C48.1992 13.7312 47.7395 13.8565 47.1599 13.8565C46.9738 13.8565 46.8206 13.8027 46.7002 13.6957C46.6236 13.7074 46.4733 13.7401 46.2489 13.7938C46.0249 13.8476 45.8525 13.8742 45.7322 13.8742H45.4041C45.4149 13.6598 45.4262 13.4159 45.4366 13.1421C45.4586 12.9636 45.5298 12.779 45.6502 12.5884C46.383 12.5884 46.8918 12.5053 47.1762 12.3385C47.209 12.3146 47.3131 12.1128 47.488 11.7315C47.6629 11.3507 47.7778 11.1601 47.8328 11.1601C47.8765 11.1601 47.8986 11.19 47.8986 11.2494C47.8986 11.404 47.8465 11.6306 47.7424 11.9278C47.6383 12.2259 47.5809 12.4398 47.57 12.5707C47.9748 12.5468 48.2208 12.5291 48.3087 12.5169C48.5822 12.4814 48.8008 12.3922 48.9653 12.2492C49.0744 11.8806 49.233 11.5054 49.4412 11.1246Z" fill="#BF1313"/>
<path d="M52.2804 0.0359761C52.1493 0.309768 51.9794 0.446664 51.7716 0.446664C51.6621 0.446664 51.4652 0.547584 51.1808 0.749891C51.1479 0.774187 51.1317 0.798015 51.1317 0.821376C51.1317 1.02415 51.252 1.12507 51.4927 1.12507C51.5472 1.12507 51.6296 1.11339 51.7387 1.08956C51.8482 1.06573 51.9303 1.05359 51.9852 1.05359C52.1272 1.05359 52.2092 1.13114 52.2313 1.28579C52.0344 1.78572 51.8374 2.131 51.6405 2.32116C51.3886 2.55991 51.033 2.67858 50.5737 2.67858C50.3331 2.67858 50.1415 2.61925 49.9996 2.5001C50.1415 2.41647 50.4588 2.31555 50.951 2.19641C51.3557 2.1011 51.6513 1.95252 51.8374 1.75021C51.8482 1.73807 51.8645 1.71424 51.8865 1.67826L51.9194 1.64275C51.9194 1.58342 51.7333 1.518 51.3615 1.44652C50.9893 1.37503 50.8036 1.30962 50.8036 1.24982C50.8036 0.916689 50.9455 0.625143 51.2303 0.375179C51.5143 0.125216 51.8153 0 52.1326 0C52.1872 0 52.2367 0.0121478 52.2804 0.0359761Z" fill="#BF1313"/>
<path d="M53.7095 7.26771C53.8082 7.88678 53.8573 8.48155 53.8573 9.05297C53.8573 10.5172 53.5946 11.7376 53.0696 12.7137C52.4567 13.8565 51.5323 14.5466 50.2961 14.7848C49.6291 14.9157 49.0216 14.9157 48.4745 14.7848C48.5295 14.725 48.6169 14.6536 48.7373 14.5709C49.1636 14.3798 49.7986 14.0765 50.6409 13.6598C51.4174 13.2673 51.9753 12.8683 52.3147 12.4637C52.9163 11.7493 53.2174 10.785 53.2174 9.57111C53.2174 8.38063 52.878 6.8631 52.1998 5.01757C52.1448 5.07737 52.1177 5.25585 52.1177 5.55347C52.1177 6.10106 52.1698 6.9257 52.2735 8.02648C52.3776 9.12772 52.4296 9.9519 52.4296 10.4995C52.4296 10.7733 52.4134 10.9817 52.3801 11.1246L52.1835 11.0354C52.1615 10.5827 52.0574 9.67811 51.8717 8.32129C51.7076 7.11867 51.6256 6.17254 51.6256 5.48199C51.6256 4.30319 51.8225 3.30987 52.2164 2.50017C52.8726 3.55983 53.3702 5.14886 53.7095 7.26771Z" fill="#BF1313"/>
<path d="M61.8974 8.82077C61.9083 8.98803 61.8042 9.40433 61.5856 10.0711C60.9398 10.1187 60.3877 10.6901 59.928 11.7848C59.2277 13.4636 58.7464 14.4751 58.4841 14.8204C57.6851 15.8917 56.5309 16.4276 55.0211 16.4276C54.3316 16.4276 53.7795 16.3085 53.3636 16.0707C53.3748 15.987 53.5551 15.9216 53.9053 15.874C56.498 15.5408 58.3962 14.0527 59.5999 11.4101C59.6545 11.2793 59.9005 10.7196 60.3381 9.73138C60.71 9.06513 61.1367 8.73153 61.6185 8.73153H61.8154C61.8371 8.74368 61.8646 8.77358 61.8974 8.82077Z" fill="#BF1313"/>
<path d="M72.3699 4.42846C72.1837 4.59526 71.9102 4.86905 71.5492 5.24983C71.4838 5.21432 71.172 4.94053 70.6136 4.42846C70.4933 4.48826 70.3484 4.63684 70.1789 4.87512C70.0095 5.11294 69.8696 5.26198 69.7605 5.32132C69.6839 5.29749 69.5198 5.15499 69.2679 4.89288C69.0164 4.63123 68.8632 4.45229 68.8087 4.35697C68.9835 4.1313 69.2846 3.83929 69.7109 3.48233C69.9079 3.63698 70.2089 3.86919 70.6136 4.17849C70.6794 4.15466 70.8326 4.01216 71.0733 3.75005C71.259 3.54774 71.4235 3.44636 71.5654 3.44636C71.6529 3.44636 71.809 3.58325 72.0334 3.85704C72.2574 4.1313 72.3699 4.32146 72.3699 4.42846ZM74.4213 12.5885C74.3226 13.0052 74.1802 13.4342 73.9945 13.8743H73.6169C72.9386 13.8743 72.4407 13.5944 72.1234 13.0352C71.9814 12.7852 71.8169 12.2554 71.6312 11.4457C71.5001 10.8864 71.3194 10.6065 71.0895 10.6065C70.5974 10.6065 70.1161 11.0354 69.6456 11.8923C69.4157 12.3329 68.9944 13.1305 68.3819 14.285C67.9222 15.1419 67.5121 15.5708 67.1511 15.5708C66.5711 15.5708 66.0456 14.9751 65.5756 13.785C65.1817 12.7852 64.9847 11.9101 64.9847 11.1602C64.9847 10.1487 65.1704 9.19599 65.5427 8.30313C65.9803 7.24394 66.5932 6.58936 67.3809 6.33893C67.5229 6.29174 67.7473 6.26184 68.0538 6.24969C68.3598 6.23801 68.6334 6.23801 68.874 6.24969L69.5798 6.28566C70.3018 6.32117 70.8818 6.18474 71.3194 5.87451V5.98197C70.9255 6.42256 70.1706 6.67813 69.0547 6.74962C67.8402 6.83325 67.0195 7.01173 66.5932 7.28552C65.827 7.78545 65.4444 8.80913 65.4444 10.3566C65.4444 11.0948 65.6026 11.8447 65.9203 12.6067C66.2921 13.5112 66.7735 14.0173 67.3643 14.1242C67.7474 13.9098 68.1849 13.3683 68.6771 12.4992C69.432 11.1779 69.8479 10.458 69.9245 10.3388C70.4171 9.61275 70.8872 9.24972 71.336 9.24972C71.7187 9.24972 71.9868 9.53519 72.14 10.1066C72.2166 10.4042 72.3532 10.9401 72.5502 11.7138C72.7692 12.2969 73.141 12.5885 73.6664 12.5885" fill="#BF1313"/>
<path d="M79.9355 9.92863C79.9355 10.1071 79.8535 10.3991 79.6894 10.8037L79.3447 11.6606L77.6871 11.9283C77.0742 12.0358 76.5821 12.2858 76.2103 12.6782C75.4658 13.4762 74.7659 13.8748 74.1097 13.8748H73.6667C73.6559 13.4819 73.7649 13.0534 73.9948 12.589H74.1588C75.1106 12.589 75.9367 12.1489 76.6371 11.2677C76.6371 10.7921 76.7844 10.28 77.0801 9.7324C77.4956 10.0062 77.9715 10.1431 78.5078 10.1431C78.8796 10.1431 79.2023 10.0655 79.4759 9.91088C79.6728 9.80341 79.7656 9.74408 79.7548 9.7324C79.8751 9.7324 79.9355 9.79781 79.9355 9.92863Z" fill="#BF1313"/>
<path d="M86.2513 12.5882C86.3279 12.5882 86.3662 12.6359 86.3662 12.7312C86.3662 12.9695 86.213 13.3503 85.907 13.874H85.3162C85.0751 13.8381 84.9002 13.7194 84.7907 13.5171C84.222 14.6239 83.8389 15.3023 83.6424 15.5523C83.1386 16.1714 82.4986 16.4811 81.7221 16.4811C80.759 16.4811 79.9388 16.1237 79.2605 15.4093L79.3588 15.3916C79.5228 15.3794 79.7418 15.3977 80.0154 15.4453C80.3327 15.4925 80.5571 15.5168 80.6882 15.5168C81.4431 15.5168 82.1214 15.3439 82.723 14.9986C83.3901 14.6179 83.861 14.0703 84.1345 13.3559C84.1345 13.2489 84.0958 13.1391 84.0196 13.026C83.943 12.913 83.8556 12.856 83.7569 12.856C83.6911 12.856 83.5953 12.877 83.4696 12.9186C83.3438 12.9606 83.2485 12.9812 83.1827 12.9812C83.0515 12.9812 82.8871 12.9069 82.6901 12.7578C82.4932 12.6093 82.3949 12.4696 82.3949 12.3383C82.3949 12.0766 82.5344 11.7164 82.8134 11.2581C83.0923 10.7997 83.3409 10.5708 83.5599 10.5708C83.8006 10.5708 84.0358 10.7194 84.2657 11.017C84.2877 11.0408 84.4464 11.3025 84.7416 11.8028C84.8727 11.9575 84.9985 12.1182 85.1192 12.2846C85.3049 12.4873 85.491 12.5882 85.6771 12.5882" fill="#BF1313"/>
<path d="M91.8973 2.08974C91.8315 2.3397 91.6346 3.31573 91.3065 5.01782C91.0766 6.19662 90.8085 7.14274 90.5025 7.85713L90.3218 7.76789C90.5295 6.88671 90.7814 5.55372 91.0766 3.768H90.9288C90.4583 4.28008 89.8238 4.79168 89.0252 5.30376C89.0581 5.35142 89.0747 5.61913 89.0747 6.10691C89.0747 6.34566 89.0635 6.80354 89.0418 7.48195L89.0089 8.49956C88.9648 9.83301 89.0252 10.7796 89.1897 11.3389C89.4299 12.1724 89.9991 12.5887 90.8959 12.5887H91.5525C91.443 12.8985 91.2902 13.3269 91.0929 13.8745H90.3547C89.8729 13.8745 89.5119 13.7558 89.2713 13.5175C89.1401 13.3867 88.9211 13.0414 88.6151 12.4817C88.3523 13.0531 87.9968 13.44 87.5483 13.6423C87.1982 13.7969 86.6948 13.8745 86.0386 13.8745H85.5627C85.6064 13.589 85.7213 13.1601 85.9074 12.5887C86.5636 12.5887 87.0066 12.5709 87.2365 12.5354C87.7507 12.4523 88.1283 12.2495 88.369 11.928V6.41061C88.369 6.32744 88.4314 6.18167 88.5576 5.97329C88.6833 5.76491 88.757 5.62521 88.7791 5.55372C88.757 5.52989 88.7133 5.51775 88.648 5.51775C88.4181 5.51775 88.0817 5.56867 87.6387 5.66959C87.1957 5.77098 86.8588 5.82144 86.6294 5.82144C86.126 5.82144 85.6339 5.76818 85.1526 5.66072V5.53597C88.3469 4.9169 90.5354 3.74417 91.7166 2.01825" fill="#BF1313"/>
<path d="M96.541 10.7671C96.0377 10.1602 95.5563 9.85649 95.0967 9.85649C94.6807 9.85649 94.3035 10.1303 93.9646 10.6779C93.691 11.1063 93.5049 11.5829 93.4066 12.1062C94.577 11.7492 95.6221 11.303 96.541 10.7671ZM99.1667 10.3387C99.1554 10.7078 99.0134 11.1245 98.7399 11.5885C97.9629 11.5768 97.017 11.8207 95.9011 12.3206C94.4238 12.9752 93.5049 13.3504 93.1439 13.4457C92.9361 14.1241 92.7937 14.7847 92.7171 15.4276H92.5693C92.5693 15.4991 92.5914 14.9156 92.6351 13.6774C92.4819 13.6774 92.2599 13.7106 91.9706 13.776C91.6804 13.8414 91.4589 13.8741 91.306 13.8741H90.6165C90.6274 13.5765 90.7864 13.1481 91.0925 12.5883H91.3714C91.5684 12.5883 92.0713 12.4813 92.8812 12.2669C93.2422 11.1839 93.554 10.4041 93.8163 9.92797C94.3418 8.96363 94.9105 8.48145 95.5234 8.48145C95.8624 8.48145 96.3932 8.79403 97.1152 9.41917C97.8376 10.0438 98.4172 10.3564 98.8548 10.3564C98.9643 10.3564 99.0684 10.3508 99.1667 10.3387Z" fill="#BF1313"/>
</svg>
