<svg width="24" height="22" viewBox="0 0 24 22" fill="none" xmlns="http://www.w3.org/2000/svg">
<path d="M22.4564 3.08915H16.2782V1.09311C16.2782 0.830772 16.0653 0.617861 15.8029 0.617861H8.19897C7.93663 0.617861 7.72372 0.830772 7.72372 1.09311V3.08915H1.54551C0.758495 3.08915 0.119762 3.72788 0.119762 4.51489V19.7228C0.119762 20.5098 0.758495 21.1486 1.54551 21.1486H22.4564C23.2434 21.1486 23.8821 20.5098 23.8821 19.7228V4.51489C23.8821 3.72788 23.2434 3.08915 22.4564 3.08915ZM8.67422 1.56836H15.3277V3.08915H8.67422V1.56836ZM22.4564 20.1981H1.54551C1.28317 20.1981 1.07026 19.9851 1.07026 19.7228V12.115C1.46756 12.4154 1.95992 12.5941 2.496 12.5941H8.67422V13.5446C8.67422 13.8069 8.88713 14.0198 9.14947 14.0198H14.8524C15.1148 14.0198 15.3277 13.8069 15.3277 13.5446V12.5941H21.5059C22.042 12.5941 22.5343 12.4135 22.9316 12.115V19.7228C22.9316 19.9851 22.7187 20.1981 22.4564 20.1981ZM9.62471 13.0693V11.1684H14.3772V13.0693H9.62471ZM21.5059 11.6436H15.3277V10.6931C15.3277 10.4308 15.1148 10.2179 14.8524 10.2179H9.14947C8.88713 10.2179 8.67422 10.4308 8.67422 10.6931V11.6436H2.496C1.70899 11.6436 1.07026 11.0049 1.07026 10.2179V4.51489C1.07026 4.25255 1.28317 4.03964 1.54551 4.03964H22.4564C22.7187 4.03964 22.9316 4.25255 22.9316 4.51489V10.2179C22.9316 11.0049 22.2929 11.6436 21.5059 11.6436Z" fill="#10233E"/>
<path d="M22.4545 21.2683H1.5436C0.69196 21.2683 0 20.5745 0 19.7247V4.51489C0 3.66325 0.693861 2.97129 1.5436 2.97129H7.60396V1.09311C7.60396 0.766139 7.8701 0.5 8.19707 0.5H15.801C16.128 0.5 16.3941 0.766139 16.3941 1.09311V2.97129H22.4545C23.3061 2.97129 23.9981 3.66515 23.9981 4.51489V19.7228C23.9981 20.5745 23.3042 21.2664 22.4545 21.2664V21.2683ZM1.5436 3.20891C0.823129 3.20891 0.235723 3.79442 0.235723 4.51679V19.7247C0.235723 20.4452 0.821228 21.0326 1.5436 21.0326H22.4545C23.175 21.0326 23.7624 20.4471 23.7624 19.7247V4.51489C23.7624 3.79442 23.1769 3.20701 22.4545 3.20701H16.2763C16.2097 3.20701 16.1584 3.15378 16.1584 3.08915V1.09311C16.1584 0.897307 15.9987 0.735723 15.801 0.735723H8.19707C8.00127 0.735723 7.83968 0.895406 7.83968 1.09311V3.08915C7.83968 3.15568 7.78646 3.20701 7.72182 3.20701H1.5436V3.20891ZM1.5436 20.3178C1.21663 20.3178 0.950495 20.0517 0.950495 19.7247V12.117C0.950495 12.0713 0.975208 12.0314 1.01703 12.0105C1.05695 11.9915 1.10638 11.9953 1.14059 12.0219C1.536 12.3204 2.00364 12.4781 2.4941 12.4781H8.67232C8.73885 12.4781 8.79018 12.5314 8.79018 12.596V13.5465C8.79018 13.7423 8.94986 13.9039 9.14756 13.9039H14.8505C15.0463 13.9039 15.2079 13.7442 15.2079 13.5465V12.596C15.2079 12.5295 15.2611 12.4781 15.3258 12.4781H21.504C21.9945 12.4781 22.4621 12.3204 22.8575 12.0219C22.8936 11.9953 22.9411 11.9896 22.983 12.0105C23.0229 12.0314 23.0495 12.0713 23.0495 12.117V19.7247C23.0495 20.0517 22.7834 20.3178 22.4564 20.3178H1.5436ZM1.18812 12.3413V19.7247C1.18812 19.9205 1.3478 20.0821 1.5455 20.0821H22.4564C22.6522 20.0821 22.8138 19.9224 22.8138 19.7247V12.3413C22.4203 12.5865 21.9716 12.7139 21.5059 12.7139H15.4455V13.5465C15.4455 13.8735 15.1794 14.1396 14.8524 14.1396H9.14947C8.8225 14.1396 8.55636 13.8735 8.55636 13.5465V12.7139H2.4941C2.02836 12.7139 1.58162 12.5846 1.18622 12.3413H1.18812ZM14.3772 13.1891H9.62471C9.55818 13.1891 9.50685 13.1359 9.50685 13.0712V11.1703C9.50685 11.1037 9.56008 11.0524 9.62471 11.0524H14.3772C14.4437 11.0524 14.495 11.1056 14.495 11.1703V13.0712C14.495 13.1378 14.4418 13.1891 14.3772 13.1891ZM9.74257 12.9515H14.2574V11.2881H9.74257V12.9515ZM21.5059 11.7634H15.3277C15.2611 11.7634 15.2098 11.7101 15.2098 11.6455V10.695C15.2098 10.4992 15.0501 10.3376 14.8524 10.3376H9.14947C8.95366 10.3376 8.79208 10.4973 8.79208 10.695V11.6455C8.79208 11.712 8.73885 11.7634 8.67422 11.7634H2.4941C1.64246 11.7634 0.950495 11.0695 0.950495 10.2198V4.51679C0.950495 4.18982 1.21663 3.92368 1.5436 3.92368H22.4545C22.7815 3.92368 23.0476 4.18982 23.0476 4.51679V10.2198C23.0476 11.0714 22.3537 11.7634 21.504 11.7634H21.5059ZM21.5059 11.5257C22.2264 11.5257 22.8138 10.9402 22.8138 10.2179V4.51489C22.8138 4.31909 22.6541 4.1575 22.4564 4.1575H1.5436C1.3478 4.1575 1.18622 4.31719 1.18622 4.51489V10.2179C1.18622 10.9383 1.77172 11.5257 2.4941 11.5257H8.55445V10.6931C8.55445 10.3661 8.82059 10.1 9.14756 10.1H14.8505C15.1775 10.1 15.4436 10.3661 15.4436 10.6931V11.5257H21.5059ZM15.3277 3.20891H8.67422C8.60768 3.20891 8.55636 3.15568 8.55636 3.09105V1.56836C8.55636 1.50182 8.60958 1.4505 8.67422 1.4505H15.3277C15.3942 1.4505 15.4455 1.50372 15.4455 1.56836V3.08915C15.4455 3.15568 15.3923 3.20701 15.3277 3.20701V3.20891ZM8.79208 2.97129H15.2079V1.68812H8.79208V2.97129Z" fill="#10233E"/>
</svg>
